<?xml version="1.0" encoding="UTF-8"?>
<svg version="1.1" xmlns="http://www.w3.org/2000/svg" width="88" height="64">
<path d="M0 0 C9.9 0 19.8 0 30 0 C30 13.86 30 27.72 30 42 C25.61884428 39.37130657 22.0404667 36.61682776 18.18359375 33.328125 C16.1522827 31.83094731 16.1522827 31.83094731 14.078125 32.01171875 C11.09077752 33.4323934 8.82467828 35.41926646 6.3125 37.5625 C1.08580343 42 1.08580343 42 0 42 C0 28.14 0 14.28 0 0 Z M2 2 C2 13.55 2 25.1 2 37 C6.98219792 33.68172438 6.98219792 33.68172438 11.875 30.25 C12.90625 29.5075 13.9375 28.765 15 28 C15.85464844 28.6496875 16.70929687 29.299375 17.58984375 29.96875 C18.70563442 30.81262529 19.82152499 31.6563685 20.9375 32.5 C21.50146484 32.92925781 22.06542969 33.35851562 22.64648438 33.80078125 C25.07552033 36.02087149 25.07552033 36.02087149 28 37 C28 25.45 28 13.9 28 2 C19.42 2 10.84 2 2 2 Z " fill="#000000" transform="translate(29,11)"/>
</svg>
