<?xml version="1.0" encoding="UTF-8"?>
<svg version="1.1" xmlns="http://www.w3.org/2000/svg" width="92" height="67">
<path d="M0 0 C1.9375 1.4375 1.9375 1.4375 3 3 C3 3.66 3 4.32 3 5 C4.134375 4.979375 5.26875 4.95875 6.4375 4.9375 C10 5 10 5 11 6 C11.08874135 9.10251201 11.11518455 12.1826812 11.09765625 15.28515625 C11.0962413 16.21597519 11.09482635 17.14679413 11.09336853 18.1058197 C11.08775172 21.09141191 11.0751964 24.07693029 11.0625 27.0625 C11.05748716 29.08137913 11.05292388 31.10025943 11.04882812 33.11914062 C11.03862587 38.07947871 11.01905382 43.0396563 11 48 C0.44 48 -10.12 48 -21 48 C-21.02290595 42.0368177 -21.04283396 36.07378689 -21.05493164 30.1105957 C-21.05997278 28.08031702 -21.06680557 26.05004198 -21.07543945 24.01977539 C-21.08751467 21.10822653 -21.09323034 18.1967255 -21.09765625 15.28515625 C-21.10281754 14.3716188 -21.10797882 13.45808136 -21.11329651 12.51686096 C-21.11349168 10.34424573 -21.06211805 8.17172704 -21 6 C-20 5 -20 5 -16.6875 4.6875 C-12.62253756 3.92962565 -11.5932659 3.07350033 -9 0 C-5.85000502 -1.57499749 -3.36459118 -0.70833498 0 0 Z M-7 2 C-7.99 2.99 -8.98 3.98 -10 5 C-6.7 5 -3.4 5 0 5 C-0.99 4.01 -1.98 3.02 -3 2 C-4.32 2 -5.64 2 -7 2 Z M-18 9 C-18 20.88 -18 32.76 -18 45 C-9.42 45 -0.84 45 8 45 C8 33.12 8 21.24 8 9 C4.99740483 8.66781808 4.99740483 8.66781808 3.3125 10.5 C2.6628125 11.2425 2.6628125 11.2425 2 12 C2 11.01 2 10.02 2 9 C-2.62 9 -7.24 9 -12 9 C-12 9.99 -12 10.98 -12 12 C-12.66 12 -13.32 12 -14 12 C-14 11.01 -14 10.02 -14 9 C-15.32 9 -16.64 9 -18 9 Z " fill="#000000" transform="translate(51,10)"/>
</svg>
