<?xml version="1.0" encoding="UTF-8"?>
<svg version="1.1" xmlns="http://www.w3.org/2000/svg" width="115" height="83">
<path d="M0 0 C1.5169043 -0.0299707 1.5169043 -0.0299707 3.06445312 -0.06054688 C9.45617466 -0.05637745 13.3678662 0.6449266 18.5625 4.4375 C21.9055517 8.44916204 22.2248272 12.37240804 22.5625 17.4375 C21.03165575 18.96834425 19.65046856 18.56465779 17.51757812 18.56689453 C16.65998901 18.57004669 15.8023999 18.57319885 14.91882324 18.57644653 C13.98654907 18.5744223 13.0542749 18.57239807 12.09375 18.5703125 C10.66778503 18.57174759 10.66778503 18.57174759 9.2130127 18.57321167 C7.19881118 18.57389357 5.18460748 18.57203862 3.17041016 18.56787109 C0.07579645 18.56252298 -3.0186721 18.56781577 -6.11328125 18.57421875 C-8.06510449 18.57355797 -10.01692764 18.57227681 -11.96875 18.5703125 C-13.36716125 18.57334885 -13.36716125 18.57334885 -14.79382324 18.57644653 C-15.65141235 18.57329437 -16.50900146 18.57014221 -17.39257812 18.56689453 C-18.15123169 18.56609894 -18.90988525 18.56530334 -19.69152832 18.56448364 C-21.4375 18.4375 -21.4375 18.4375 -22.4375 17.4375 C-23.17645714 12.38795957 -21.64123727 9.45153529 -19.1171875 5.26953125 C-13.8427 -0.48334001 -7.24456278 -0.05059695 0 0 Z M-17.4375 8.4375 C-19.19420469 11.15240725 -19.4375 12.15184047 -19.4375 15.4375 C-6.5675 15.4375 6.3025 15.4375 19.5625 15.4375 C17.94081719 8.74425321 17.94081719 8.74425321 13.546875 4.34863281 C9.27556487 2.38744563 4.67326975 2.72506442 0.0625 2.8125 C-1.46697266 2.78349609 -1.46697266 2.78349609 -3.02734375 2.75390625 C-9.62553194 2.79680734 -12.9436118 3.51350369 -17.4375 8.4375 Z " fill="#000000" transform="translate(57.4375,44.5625)"/>
<path d="M0 0 C4.81659662 2.45551985 7.28103603 4.84310809 9 10 C8.93007799 13.98555452 8.36812546 16.36285979 6.375 19.8125 C3.26311391 22.67871087 1.19788689 23.44028175 -3 24 C-6.93320856 23.48537458 -9.85046944 22.33958628 -12.46484375 19.29296875 C-14.5694368 15.70027961 -15.35602247 12.87169437 -14.5625 8.75 C-13.32021174 4.96362439 -11.39957178 3.12473236 -8 1 C-5.13391871 -0.43304064 -3.18699217 -0.30644155 0 0 Z M-9 5 C-11.62918894 9.61563349 -11.62918894 9.61563349 -11.4375 14.75 C-9.78556775 17.33563309 -8.74026213 18.59283837 -6 20 C-2.07403706 20.49074537 0.0688869 20.63707739 3.375 18.375 C5.38506043 15.43721938 5.92733979 13.5603504 6 10 C4.39588152 6.47093933 3.25840638 5.17227092 0 3 C-3.55934939 2.63493852 -6.1261599 2.79672259 -9 5 Z " fill="#000000" transform="translate(60,20)"/>
</svg>
