<?xml version="1.0" encoding="UTF-8"?>
<svg version="1.1" xmlns="http://www.w3.org/2000/svg" width="107" height="78">
<path d="M0 0 C4.38776929 2.82767354 7.16144368 5.24404615 9.1875 10.125 C10.03009283 15.09629768 9.70816306 19.39896547 7.9296875 24.19140625 C7.51227538 27.08708702 7.51227538 27.08708702 10.12109375 29.70703125 C11.14922216 30.69536114 12.19295893 31.66765567 13.25 32.625 C13.77916016 33.12708984 14.30832031 33.62917969 14.85351562 34.14648438 C16.16010964 35.38245168 17.48466063 36.59938595 18.8125 37.8125 C18.4825 38.8025 18.1525 39.7925 17.8125 40.8125 C13.12804538 38.88548571 10.37444329 35.29422866 7.03125 31.61328125 C5.01363779 29.55425765 5.01363779 29.55425765 2.703125 29.97265625 C2.07921875 30.24980469 1.4553125 30.52695312 0.8125 30.8125 C-4.2231518 32.87253937 -7.97949767 33.22147859 -13.1875 31.8125 C-18.62638667 29.14637908 -21.8279852 25.3146877 -24.1875 19.8125 C-25.35755476 14.56251516 -24.02064233 10.20376136 -21.46484375 5.57421875 C-16.40133813 -1.40939298 -7.69769042 -2.86776702 0 0 Z M-20.1875 8.8125 C-21.56074157 13.29726362 -21.37575145 17.13700952 -20.125 21.625 C-17.20106463 26.43534528 -14.15202119 28.23041965 -8.8125 29.8125 C-3.2934089 29.8125 0.6864956 27.73276204 4.75 24.0625 C7.10065657 19.08463904 7.23096027 15.20736757 5.6875 10.0625 C3.14437138 5.65441039 0.63467759 3.41989253 -4.1875 1.8125 C-11.15173475 1.15549672 -15.70052605 3.52699679 -20.1875 8.8125 Z " fill="#000000" transform="translate(56.1875,19.1875)"/>
</svg>
